<svg xmlns="http://www.w3.org/2000/svg" viewBox="0 0 841.9 595.3"><g fill="#61DAFB"><circle cx="420.9" cy="296.5" r="45.7"/><path d="M520.5 78.1c-57.6-33.2-120.2-51.5-184.2-51.5-64 0-126.6 18.3-184.2 51.5-57.6 33.2-108.2 80.2-146.6 137.7-38.4 57.5-60.1 123.2-60.1 192.7s21.7 135.2 60.1 192.7c38.4 57.5 89 104.5 146.6 137.7 57.6 33.2 120.2 51.5 184.2 51.5 64 0 126.6-18.3 184.2-51.5 57.6-33.2 108.2-80.2 146.6-137.7 38.4-57.5 60.1-123.2 60.1-192.7s-21.7-135.2-60.1-192.7c-38.4-57.5-89-104.5-146.6-137.7zm-99.6 418.4c-44.2 0-80.1-35.9-80.1-80.1s35.9-80.1 80.1-80.1 80.1 35.9 80.1 80.1-35.9 80.1-80.1 80.1zm0-320.2c-44.2 0-80.1-35.9-80.1-80.1s35.9-80.1 80.1-80.1 80.1 35.9 80.1 80.1-35.9 80.1-80.1 80.1z"/></g></svg> 